<svg xmlns="http://www.w3.org/2000/svg" viewBox="0 0 64 64"><g id="Layer_2" data-name="Layer 2"><g id="svg2"><path d="M31.933,0A30.22327,30.22327,0,0,0,9.48,9.3,32.348,32.348,0,0,0,2.4,19.83a32.056,32.056,0,0,0,0,24.34,32.40188,32.40188,0,0,0,6.97,10.4A33.32439,33.32439,0,0,0,19.76,61.6,31.66586,31.66586,0,0,0,31.93,64a32.1573,32.1573,0,0,0,12.31-2.46,32.919,32.919,0,0,0,10.62-7.09,28.98445,28.98445,0,0,0,6.81-10.1A32.57665,32.57665,0,0,0,64,32a32.46878,32.46878,0,0,0-2.33-12.3A30.62267,30.62267,0,0,0,54.81,9.367,31.25931,31.25931,0,0,0,31.93,0Zm.134,5.76A25.27773,25.27773,0,0,1,50.62,13.47a25.58282,25.58282,0,0,1,5.671,8.47A26.29728,26.29728,0,0,1,58.24,32a24.56819,24.56819,0,0,1-7.51,18.33A27.44,27.44,0,0,1,42,56.11a25.45639,25.45639,0,0,1-9.933,1.996,27.60275,27.60275,0,0,1-9.949-1.946A27.28347,27.28347,0,0,1,7.776,41.93,25.50977,25.50977,0,0,1,5.76,32a25.24944,25.24944,0,0,1,2.02-9.95,27.902,27.902,0,0,1,5.82-8.63A25.09633,25.09633,0,0,1,32.067,5.76Z"/></g></g></svg>