<svg xmlns="http://www.w3.org/2000/svg" viewBox="0 0 26.44 36.84"><g id="Layer_2" data-name="Layer 2"><g id="svg2"><path d="M13.22,0C2.656,0,0,9.97,0,18.42c-.002,8.452,2.66,18.42,13.22,18.42,10.565,0,13.22-9.97,13.22-18.42S23.785,0,13.22,0Zm0,6.95a4.96768,4.96768,0,0,1,1.19.15,2.02476,2.02476,0,0,1,.4,2.83L7.776,22.856A34.22947,34.22947,0,0,1,7.53,18.42c0-3.723.257-11.474,5.69-11.474Zm5.267,5.957a26.02928,26.02928,0,0,1,.433,5.513c0,3.72-.26,11.475-5.7,11.475a4.94144,4.94144,0,0,1-1.185-.135,1.7043,1.7043,0,0,1-.205-.07c-.11-.03-.23-.07-.333-.11-1.21-.513-1.972-1.444-.877-3.09l7.867-13.58Z"/></g></g></svg>