<svg xmlns="http://www.w3.org/2000/svg" viewBox="0 0 54.95171 54.95161"><defs><style>.cls-1{fill:#b25538;}</style></defs><g id="Layer_2" data-name="Layer 2"><g id="svg2"><path class="cls-1" d="M27.4268,0A26.58655,26.58655,0,0,1,46.9785,7.97311,26.52857,26.52857,0,0,1,54.95171,27.476,26.00527,26.00527,0,0,1,47.1011,46.75781a27.03849,27.03849,0,0,1-19.6743,8.1938,26.40946,26.40946,0,0,1-19.3067-8.0957A26.398,26.398,0,0,1,0,27.476,26.92982,26.92982,0,0,1,8.09571,7.94871,26.31131,26.31131,0,0,1,27.4268,0Zm.0737,4.95551a21.363,21.363,0,0,0-15.8232,6.5747A21.99838,21.99838,0,0,0,4.9556,27.476,21.59128,21.59128,0,0,0,11.628,43.27441a21.70408,21.70408,0,0,0,15.8969,6.6728,21.94893,21.94893,0,0,0,15.9947-6.7216A21.0266,21.0266,0,0,0,49.9961,27.476a21.61082,21.61082,0,0,0-6.5747-15.94579A21.68566,21.68566,0,0,0,27.5005,4.95551ZM14.5718,34.93361v-15.21H22.128q5.59275,0,5.5932,5.1519a5.33881,5.33881,0,0,1-.27,1.6928,5.17407,5.17407,0,0,1-.9321,1.6192,4.70763,4.70763,0,0,1-1.9873,1.3247,8.65883,8.65883,0,0,1-3.1402.5151H18.3989v4.9063Zm3.7783-12.3643v4.6123h3.2378a2.24064,2.24064,0,0,0,1.7666-.66261,2.38186,2.38186,0,0,0,.5889-1.64349q0-2.30565-2.4536-2.3062Zm10.4014,12.3643v-15.21h5.8877a8.176,8.176,0,0,1,5.6914,1.8648q2.06025,1.86465,2.0605,5.7402,0,3.87675-2.0605,5.7407a8.17342,8.17342,0,0,1-5.6914,1.8643Zm3.7778-12.0205v8.8315h2.208a3.42121,3.42121,0,0,0,2.919-1.2021,5.20468,5.20468,0,0,0,.9077-3.2139,5.20611,5.20611,0,0,0-.9077-3.2134,3.48124,3.48124,0,0,0-2.9683-1.2021Z"/></g></g></svg>