<?xml version="1.0" encoding="UTF-8" standalone="no"?>
<!DOCTYPE svg PUBLIC "-//W3C//DTD SVG 1.1//EN" "http://www.w3.org/Graphics/SVG/1.1/DTD/svg11.dtd">
<!-- Created with Vectornator (http://vectornator.io/) -->
<svg height="100%" stroke-miterlimit="10" style="fill-rule:nonzero;clip-rule:evenodd;stroke-linecap:round;stroke-linejoin:round;" version="1.1" viewBox="0 0 232.32 174.235" width="100%" xml:space="preserve" xmlns="http://www.w3.org/2000/svg" xmlns:vectornator="http://vectornator.io" xmlns:xlink="http://www.w3.org/1999/xlink">
<defs/>
<clipPath id="ArtboardFrame">
<rect height="174.235" width="232.32" x="0" y="0"/>
</clipPath>
<g clip-path="url(#ArtboardFrame)" id="Untitled" vectornator:layerName="Untitled">
<path d="M48.5816 71.8548L75.263 81.5668L102.341 71.7107L75.6593 61.9987L48.5816 71.8548ZM75.3797 49.9281L102.063 59.6401L129.139 49.784L102.457 40.072L75.3797 49.9281Z" fill="#fff4e6" fill-rule="nonzero" opacity="1" stroke="#cccccc" stroke-linecap="butt" stroke-linejoin="bevel" stroke-width="0.355"/>
<path d="M48.5816 71.8548L75.263 81.5668L102.341 71.7107L75.6593 61.9987L48.5816 71.8548ZM75.3797 49.9281L102.063 59.6401L129.139 49.784L102.457 40.072L75.3797 49.9281Z" fill="#fff4e6" fill-rule="nonzero" opacity="1" stroke="#cccccc" stroke-linecap="butt" stroke-linejoin="bevel" stroke-width="0.355"/>
<path d="M75.3797 49.9281L102.063 59.6401L102.063 90.9992L75.3797 81.2889L75.3797 49.9281Z" fill="#fff4e6" fill-rule="nonzero" opacity="1" stroke="#cccccc" stroke-linecap="butt" stroke-linejoin="bevel" stroke-width="0.355"/>
<path d="M75.3797 49.9281L102.063 59.6401L102.063 90.9992L75.3797 81.2889L75.3797 49.9281Z" fill="#fff4e6" fill-rule="nonzero" opacity="1" stroke="#cccccc" stroke-linecap="butt" stroke-linejoin="bevel" stroke-width="0.355"/>
<path d="M21.7835 113.269L48.4649 122.983L75.5426 113.127L48.8594 103.415L21.7835 113.269Z" fill="#fff4e6" fill-rule="nonzero" opacity="1" stroke="#cccccc" stroke-linecap="butt" stroke-linejoin="bevel" stroke-width="0.355"/>
<path d="M21.7835 113.269L48.4649 122.983L75.5426 113.127L48.8594 103.415L21.7835 113.269Z" fill="#fff4e6" fill-rule="nonzero" opacity="1" stroke="#cccccc" stroke-linecap="butt" stroke-linejoin="bevel" stroke-width="0.355"/>
<path d="M21.7835 113.269L48.4649 122.983L48.4649 154.342L21.7835 144.631L21.7835 113.269Z" fill="#fff4e6" fill-rule="nonzero" opacity="1" stroke="#cccccc" stroke-linecap="butt" stroke-linejoin="bevel" stroke-width="0.355"/>
<path d="M21.7835 113.269L48.4649 122.983L48.4649 154.342L21.7835 144.631L21.7835 113.269Z" fill="#fff4e6" fill-rule="nonzero" opacity="1" stroke="#cccccc" stroke-linecap="butt" stroke-linejoin="bevel" stroke-width="0.355"/>
<path d="M21.7835 68.6712L48.4649 78.3849L75.5426 68.5288L48.8594 58.8168L21.7835 68.6712Z" fill="#fff4e6" fill-rule="nonzero" opacity="1" stroke="#cccccc" stroke-linecap="butt" stroke-linejoin="bevel" stroke-width="0.355"/>
<path d="M21.7835 68.6712L48.4649 78.3849L75.5426 68.5288L48.8594 58.8168L21.7835 68.6712Z" fill="#fff4e6" fill-rule="nonzero" opacity="1" stroke="#cccccc" stroke-linecap="butt" stroke-linejoin="bevel" stroke-width="0.355"/>
<path d="M48.4649 78.3849L48.4649 109.744L75.5426 99.8896L75.5426 68.5288L48.4649 78.3849Z" fill="#fff4e6" fill-rule="nonzero" opacity="1" stroke="#cccccc" stroke-linecap="butt" stroke-linejoin="bevel" stroke-width="0.355"/>
<path d="M48.4649 78.3849L48.4649 109.744L75.5426 99.8896L75.5426 68.5288L48.4649 78.3849Z" fill="#fff4e6" fill-rule="nonzero" opacity="1" stroke="#cccccc" stroke-linecap="butt" stroke-linejoin="bevel" stroke-width="0.355"/>
<path d="M21.7835 68.6712L48.4649 78.3849L48.4649 109.744L21.7835 100.034L21.7835 68.6712Z" fill="#fff4e6" fill-rule="nonzero" opacity="1" stroke="#cccccc" stroke-linecap="butt" stroke-linejoin="bevel" stroke-width="0.355"/>
<path d="M21.7835 68.6712L48.4649 78.3849L48.4649 109.744L21.7835 100.034L21.7835 68.6712Z" fill="#fff4e6" fill-rule="nonzero" opacity="1" stroke="#cccccc" stroke-linecap="butt" stroke-linejoin="bevel" stroke-width="0.355"/>
<path d="M48.8972 41.9966L48.8543 42.0497C46.236 42.0733 44.1253 44.2016 44.1235 46.82C44.1244 47.1264 44.1549 47.432 44.2144 47.7325L24.0682 72.4054L37.1851 88.4674L30.5469 72.4054L47.6742 51.4307C48.0741 51.5386 48.4864 51.5939 48.9006 51.5954C49.3147 51.595 49.727 51.5408 50.127 51.4341L59.2421 62.5973L68.4584 65.9507L53.5834 47.7325C53.6416 47.4324 53.6709 47.1274 53.6708 46.8217C53.67 44.2039 51.5611 42.0751 48.9435 42.0497L48.9006 41.9983L48.8972 41.9966ZM52.5593 29.4938C52.6002 28.1587 51.9113 26.9071 50.7614 26.2275C49.6115 25.5479 48.1829 25.5479 47.033 26.2275C45.8831 26.9071 45.1941 28.1587 45.235 29.4938L45.235 35.0942C45.2956 37.0731 46.9173 38.646 48.8972 38.646C50.877 38.646 52.4988 37.0731 52.5593 35.0942C52.5593 35.0942 52.5593 29.4938 52.5593 29.4938ZM50.8783 29.4903L50.8783 35.0908C50.878 36.1847 49.9911 37.0713 48.8972 37.0713C47.8033 37.0713 46.9164 36.1847 46.916 35.0908L46.916 29.4903C46.9156 28.3959 47.8027 27.5085 48.8972 27.5085C49.9916 27.5085 50.8787 28.3959 50.8783 29.4903ZM52.5593 10.2601C52.6002 8.92504 51.9113 7.67349 50.7614 6.99387C49.6115 6.31425 48.1829 6.31425 47.033 6.99387C45.8831 7.67349 45.1941 8.92504 45.235 10.2601L45.235 15.8623C45.2956 17.8412 46.9173 19.4141 48.8972 19.4141C50.877 19.4141 52.4988 17.8412 52.5593 15.8623C52.5593 15.8623 52.5593 10.2601 52.5593 10.2601ZM50.8783 10.2567L50.8783 15.8589C50.878 16.9528 49.9911 17.8393 48.8972 17.8393C47.8033 17.8393 46.9164 16.9528 46.916 15.8589L46.916 10.2567C46.9156 9.16226 47.8027 8.27484 48.8972 8.27484C49.9916 8.27484 50.8787 9.16226 50.8783 10.2567Z" fill="#1c0021" fill-rule="nonzero" opacity="1" stroke="none"/>
<path d="M48.8972 41.9966L48.8543 42.0497C46.236 42.0733 44.1253 44.2016 44.1235 46.82C44.1244 47.1264 44.1549 47.432 44.2144 47.7325L24.0682 72.4054L37.1851 88.4674L30.5469 72.4054L47.6742 51.4307C48.0741 51.5386 48.4864 51.5939 48.9006 51.5954C49.3147 51.595 49.727 51.5408 50.127 51.4341L59.2421 62.5973L68.4584 65.9507L53.5834 47.7325C53.6416 47.4324 53.6709 47.1274 53.6708 46.8217C53.67 44.2039 51.5611 42.0751 48.9435 42.0497L48.9006 41.9983L48.8972 41.9966ZM52.5593 29.4938C52.6002 28.1587 51.9113 26.9071 50.7614 26.2275C49.6115 25.5479 48.1829 25.5479 47.033 26.2275C45.8831 26.9071 45.1941 28.1587 45.235 29.4938L45.235 35.0942C45.2956 37.0731 46.9173 38.646 48.8972 38.646C50.877 38.646 52.4988 37.0731 52.5593 35.0942C52.5593 35.0942 52.5593 29.4938 52.5593 29.4938ZM50.8783 29.4903L50.8783 35.0908C50.878 36.1847 49.9911 37.0713 48.8972 37.0713C47.8033 37.0713 46.9164 36.1847 46.916 35.0908L46.916 29.4903C46.9156 28.3959 47.8027 27.5085 48.8972 27.5085C49.9916 27.5085 50.8787 28.3959 50.8783 29.4903ZM52.5593 10.2601C52.6002 8.92504 51.9113 7.67349 50.7614 6.99387C49.6115 6.31425 48.1829 6.31425 47.033 6.99387C45.8831 7.67349 45.1941 8.92504 45.235 10.2601L45.235 15.8623C45.2956 17.8412 46.9173 19.4141 48.8972 19.4141C50.877 19.4141 52.4988 17.8412 52.5593 15.8623C52.5593 15.8623 52.5593 10.2601 52.5593 10.2601ZM50.8783 10.2567L50.8783 15.8589C50.878 16.9528 49.9911 17.8393 48.8972 17.8393C47.8033 17.8393 46.9164 16.9528 46.916 15.8589L46.916 10.2567C46.9156 9.16226 47.8027 8.27484 48.8972 8.27484C49.9916 8.27484 50.8787 9.16226 50.8783 10.2567Z" fill="#1c0021" fill-rule="nonzero" opacity="1" stroke="none"/>
<path d="M49.7891 17.1042L49.7891 28.2502C49.7891 28.7428 49.3898 29.1421 48.8972 29.1421C48.4046 29.1421 48.0052 28.7428 48.0052 28.2502L48.0052 17.1042C48.0052 16.6116 48.4046 16.2122 48.8972 16.2122C49.3898 16.2122 49.7891 16.6116 49.7891 17.1042ZM49.7891 36.3378L49.7891 47.4838C49.7891 47.9764 49.3898 48.3758 48.8972 48.3758C48.4046 48.3758 48.0052 47.9764 48.0052 47.4838L48.0052 36.3378C48.0052 35.8452 48.4046 35.4459 48.8972 35.4459C49.3898 35.4459 49.7891 35.8452 49.7891 36.3378ZM49.7891-2.19293L49.7891 8.95307C49.7891 9.44568 49.3898 9.84503 48.8972 9.84503C48.4046 9.84503 48.0052 9.44568 48.0052 8.95307L48.0052-2.19293C48.0052-2.68555 48.4046-3.08489 48.8972-3.08489C49.3898-3.08489 49.7891-2.68555 49.7891-2.19293Z" fill="#1c0021" fill-rule="nonzero" opacity="1" stroke="none"/>
<path d="M49.7891 17.1042L49.7891 28.2502C49.7891 28.7428 49.3898 29.1421 48.8972 29.1421C48.4046 29.1421 48.0052 28.7428 48.0052 28.2502L48.0052 17.1042C48.0052 16.6116 48.4046 16.2122 48.8972 16.2122C49.3898 16.2122 49.7891 16.6116 49.7891 17.1042ZM49.7891 36.3378L49.7891 47.4838C49.7891 47.9764 49.3898 48.3758 48.8972 48.3758C48.4046 48.3758 48.0052 47.9764 48.0052 47.4838L48.0052 36.3378C48.0052 35.8452 48.4046 35.4459 48.8972 35.4459C49.3898 35.4459 49.7891 35.8452 49.7891 36.3378ZM49.7891-2.19293L49.7891 8.95307C49.7891 9.44568 49.3898 9.84503 48.8972 9.84503C48.4046 9.84503 48.0052 9.44568 48.0052 8.95307L48.0052-2.19293C48.0052-2.68555 48.4046-3.08489 48.8972-3.08489C49.3898-3.08489 49.7891-2.68555 49.7891-2.19293Z" fill="#1c0021" fill-rule="nonzero" opacity="1" stroke="none"/>
<path d="M48.5798 123.015L75.263 132.727L75.263 164.088L48.5816 154.376L48.5798 123.015Z" fill="#fff4e6" fill-rule="nonzero" opacity="1" stroke="#cccccc" stroke-linecap="butt" stroke-linejoin="bevel" stroke-width="0.355"/>
<path d="M48.5798 123.015L75.263 132.727L75.263 164.088L48.5816 154.376L48.5798 123.015Z" fill="#fff4e6" fill-rule="nonzero" opacity="1" stroke="#cccccc" stroke-linecap="butt" stroke-linejoin="bevel" stroke-width="0.355"/>
<path d="M48.5798 91.344L75.263 101.056L102.341 91.1999L75.6593 81.4896L48.5798 91.344Z" fill="#fff4e6" fill-rule="nonzero" opacity="1" stroke="#cccccc" stroke-linecap="butt" stroke-linejoin="bevel" stroke-width="0.355"/>
<path d="M48.5798 91.344L75.263 101.056L102.341 91.1999L75.6593 81.4896L48.5798 91.344Z" fill="#fff4e6" fill-rule="nonzero" opacity="1" stroke="#cccccc" stroke-linecap="butt" stroke-linejoin="bevel" stroke-width="0.355"/>
<path d="M48.5798 91.344L75.263 101.056L75.263 132.417L48.5816 122.705L48.5798 91.344Z" fill="#fff4e6" fill-rule="nonzero" opacity="1" stroke="#cccccc" stroke-linecap="butt" stroke-linejoin="bevel" stroke-width="0.355"/>
<path d="M48.5798 91.344L75.263 101.056L75.263 132.417L48.5816 122.705L48.5798 91.344Z" fill="#fff4e6" fill-rule="nonzero" opacity="1" stroke="#cccccc" stroke-linecap="butt" stroke-linejoin="bevel" stroke-width="0.355"/>
<path d="M182.459 113.236L182.459 144.597L209.535 134.743L209.535 103.382L182.459 113.236Z" fill="#fff4e6" fill-rule="nonzero" opacity="1" stroke="#cccccc" stroke-linecap="butt" stroke-linejoin="bevel" stroke-width="0.355"/>
<path d="M182.459 113.236L182.459 144.597L209.535 134.743L209.535 103.382L182.459 113.236Z" fill="#fff4e6" fill-rule="nonzero" opacity="1" stroke="#cccccc" stroke-linecap="butt" stroke-linejoin="bevel" stroke-width="0.355"/>
<path d="M155.659 122.983L155.659 154.342L182.737 144.487L182.737 113.127L155.659 122.983Z" fill="#f7ff85" fill-rule="nonzero" opacity="1" stroke="#cccccc" stroke-linecap="butt" stroke-linejoin="bevel" stroke-width="0.355"/>
<path d="M155.659 122.983L155.659 154.342L182.737 144.487L182.737 113.127L155.659 122.983Z" fill="#f7ff85" fill-rule="nonzero" opacity="1" stroke="#cccccc" stroke-linecap="butt" stroke-linejoin="bevel" stroke-width="0.355"/>
<path d="M177.829 130.628C177.83 133.685 175.501 137.01 172.628 138.055C169.758 139.099 167.431 137.47 167.429 134.415C167.428 131.359 169.756 128.033 172.628 126.988C175.501 125.942 177.829 127.573 177.829 130.629L177.829 130.628Z" fill="#fff4e6" fill-rule="nonzero" opacity="1" stroke="none"/>
<path d="M177.829 130.628C177.83 133.685 175.501 137.01 172.628 138.055C169.758 139.099 167.431 137.47 167.429 134.415C167.428 131.359 169.756 128.033 172.628 126.988C175.501 125.942 177.829 127.573 177.829 130.629L177.829 130.628Z" fill="#fff4e6" fill-rule="nonzero" opacity="1" stroke="none"/>
<path d="M128.861 132.727L128.861 164.088L155.939 154.232L155.939 122.871L128.861 132.727Z" fill="#f7ff85" fill-rule="nonzero" opacity="1" stroke="#cccccc" stroke-linecap="butt" stroke-linejoin="bevel" stroke-width="0.355"/>
<path d="M128.861 132.727L128.861 164.088L155.939 154.232L155.939 122.871L128.861 132.727Z" fill="#f7ff85" fill-rule="nonzero" opacity="1" stroke="#cccccc" stroke-linecap="butt" stroke-linejoin="bevel" stroke-width="0.355"/>
<path d="M102.063 142.472L102.063 173.833L129.139 163.977L129.139 132.617L102.063 142.472Z" fill="#fff4e6" fill-rule="nonzero" opacity="1" stroke="#cccccc" stroke-linecap="butt" stroke-linejoin="bevel" stroke-width="0.355"/>
<path d="M102.063 142.472L102.063 173.833L129.139 163.977L129.139 132.617L102.063 142.472Z" fill="#fff4e6" fill-rule="nonzero" opacity="1" stroke="#cccccc" stroke-linecap="butt" stroke-linejoin="bevel" stroke-width="0.355"/>
<path d="M75.3797 132.76L102.063 142.472L102.063 173.833L75.3797 164.121L75.3797 132.76Z" fill="#fff4e6" fill-rule="nonzero" opacity="1" stroke="#cccccc" stroke-linecap="butt" stroke-linejoin="bevel" stroke-width="0.355"/>
<path d="M75.3797 132.76L102.063 142.472L102.063 173.833L75.3797 164.121L75.3797 132.76Z" fill="#fff4e6" fill-rule="nonzero" opacity="1" stroke="#cccccc" stroke-linecap="butt" stroke-linejoin="bevel" stroke-width="0.355"/>
<path d="M182.459 81.5668L182.459 112.926L209.535 103.071L209.535 71.7107L182.459 81.5668Z" fill="#f7ff85" fill-rule="nonzero" opacity="1" stroke="#cccccc" stroke-linecap="butt" stroke-linejoin="bevel" stroke-width="0.355"/>
<path d="M182.459 81.5668L182.459 112.926L209.535 103.071L209.535 71.7107L182.459 81.5668Z" fill="#f7ff85" fill-rule="nonzero" opacity="1" stroke="#cccccc" stroke-linecap="butt" stroke-linejoin="bevel" stroke-width="0.355"/>
<path d="M155.776 40.1835L182.459 49.8955L209.535 40.0394L182.853 30.3274L155.776 40.1835Z" fill="#f7ff85" fill-rule="nonzero" opacity="1" stroke="#cccccc" stroke-linecap="butt" stroke-linejoin="bevel" stroke-width="0.355"/>
<path d="M155.776 40.1835L182.459 49.8955L209.535 40.0394L182.853 30.3274L155.776 40.1835Z" fill="#f7ff85" fill-rule="nonzero" opacity="1" stroke="#cccccc" stroke-linecap="butt" stroke-linejoin="bevel" stroke-width="0.355"/>
<path d="M182.459 49.8955L182.459 81.2546L209.535 71.4002L209.535 40.0394L182.459 49.8955ZM155.659 91.3114L155.659 122.67L182.737 112.816L182.737 81.4553L155.659 91.3114Z" fill="#f7ff85" fill-rule="nonzero" opacity="1" stroke="#cccccc" stroke-linecap="butt" stroke-linejoin="bevel" stroke-width="0.355"/>
<path d="M182.459 49.8955L182.459 81.2546L209.535 71.4002L209.535 40.0394L182.459 49.8955ZM155.659 91.3114L155.659 122.67L182.737 112.816L182.737 81.4553L155.659 91.3114Z" fill="#f7ff85" fill-rule="nonzero" opacity="1" stroke="#cccccc" stroke-linecap="butt" stroke-linejoin="bevel" stroke-width="0.355"/>
<path d="M155.659 59.6401L155.659 90.9992L182.737 81.1448L182.737 49.784L155.659 59.6401Z" fill="#00006b" fill-rule="nonzero" opacity="1" stroke="#cccccc" stroke-linecap="butt" stroke-linejoin="bevel" stroke-width="0.355"/>
<path d="M155.659 59.6401L155.659 90.9992L182.737 81.1448L182.737 49.784L155.659 59.6401Z" fill="#00006b" fill-rule="nonzero" opacity="1" stroke="#cccccc" stroke-linecap="butt" stroke-linejoin="bevel" stroke-width="0.355"/>
<path d="M128.978 18.2569L155.659 27.9689L182.737 18.1128L156.055 8.40247L128.978 18.2569Z" fill="#00006b" fill-rule="nonzero" opacity="1" stroke="#cccccc" stroke-linecap="butt" stroke-linejoin="bevel" stroke-width="0.355"/>
<path d="M128.978 18.2569L155.659 27.9689L182.737 18.1128L156.055 8.40247L128.978 18.2569Z" fill="#00006b" fill-rule="nonzero" opacity="1" stroke="#cccccc" stroke-linecap="butt" stroke-linejoin="bevel" stroke-width="0.355"/>
<path d="M155.659 27.9671L155.659 59.3279L182.737 49.4736L182.737 18.1128L155.659 27.9671Z" fill="#00006b" fill-rule="nonzero" opacity="1" stroke="#cccccc" stroke-linecap="butt" stroke-linejoin="bevel" stroke-width="0.355"/>
<path d="M155.659 27.9671L155.659 59.3279L182.737 49.4736L182.737 18.1128L155.659 27.9671Z" fill="#00006b" fill-rule="nonzero" opacity="1" stroke="#cccccc" stroke-linecap="butt" stroke-linejoin="bevel" stroke-width="0.355"/>
<path d="M128.861 101.056L128.861 132.417L155.939 122.561L155.939 91.1999L128.861 101.056Z" fill="#f7ff85" fill-rule="nonzero" opacity="1" stroke="#cccccc" stroke-linecap="butt" stroke-linejoin="bevel" stroke-width="0.355"/>
<path d="M128.861 101.056L128.861 132.417L155.939 122.561L155.939 91.1999L128.861 101.056Z" fill="#f7ff85" fill-rule="nonzero" opacity="1" stroke="#cccccc" stroke-linecap="butt" stroke-linejoin="bevel" stroke-width="0.355"/>
<path d="M128.861 69.3847L128.861 100.746L155.939 90.8894L155.939 59.5286L128.861 69.3847ZM102.063 110.801L102.063 142.161L129.139 132.305L129.139 100.946L102.063 110.801Z" fill="#00006b" fill-rule="nonzero" opacity="1" stroke="#cccccc" stroke-linecap="butt" stroke-linejoin="bevel" stroke-width="0.355"/>
<path d="M128.861 69.3847L128.861 100.746L155.939 90.8894L155.939 59.5286L128.861 69.3847ZM102.063 110.801L102.063 142.161L129.139 132.305L129.139 100.946L102.063 110.801Z" fill="#00006b" fill-rule="nonzero" opacity="1" stroke="#cccccc" stroke-linecap="butt" stroke-linejoin="bevel" stroke-width="0.355"/>
<path d="M75.3797 101.09L102.063 110.801L102.063 142.161L75.3797 132.449L75.3797 101.09ZM75.3797 69.4173L102.063 79.1293L129.139 69.275L102.457 59.5629L75.3797 69.4173Z" fill="#00006b" fill-rule="nonzero" opacity="1" stroke="#cccccc" stroke-linecap="butt" stroke-linejoin="bevel" stroke-width="0.355"/>
<path d="M75.3797 101.09L102.063 110.801L102.063 142.161L75.3797 132.449L75.3797 101.09ZM75.3797 69.4173L102.063 79.1293L129.139 69.275L102.457 59.5629L75.3797 69.4173Z" fill="#00006b" fill-rule="nonzero" opacity="1" stroke="#cccccc" stroke-linecap="butt" stroke-linejoin="bevel" stroke-width="0.355"/>
<path d="M102.063 79.1293L102.063 110.49L129.139 100.634L129.139 69.275L102.063 79.1293Z" fill="#00006b" fill-rule="nonzero" opacity="1" stroke="#cccccc" stroke-linecap="butt" stroke-linejoin="bevel" stroke-width="0.355"/>
<path d="M102.063 79.1293L102.063 110.49L129.139 100.634L129.139 69.275L102.063 79.1293Z" fill="#00006b" fill-rule="nonzero" opacity="1" stroke="#cccccc" stroke-linecap="butt" stroke-linejoin="bevel" stroke-width="0.355"/>
<path d="M75.3797 69.4173L102.063 79.1293L102.063 110.49L75.3797 100.778L75.3797 69.4173ZM102.179 28.0015L128.861 37.7135L155.939 27.8574L129.255 18.1471L102.179 28.0015Z" fill="#00006b" fill-rule="nonzero" opacity="1" stroke="#cccccc" stroke-linecap="butt" stroke-linejoin="bevel" stroke-width="0.355"/>
<path d="M75.3797 69.4173L102.063 79.1293L102.063 110.49L75.3797 100.778L75.3797 69.4173ZM102.179 28.0015L128.861 37.7135L155.939 27.8574L129.255 18.1471L102.179 28.0015Z" fill="#00006b" fill-rule="nonzero" opacity="1" stroke="#cccccc" stroke-linecap="butt" stroke-linejoin="bevel" stroke-width="0.355"/>
<path d="M128.861 37.7135L128.861 69.0743L155.939 59.2182L155.939 27.8574L128.861 37.7135Z" fill="#00006b" fill-rule="nonzero" opacity="1" stroke="#cccccc" stroke-linecap="butt" stroke-linejoin="bevel" stroke-width="0.355"/>
<path d="M128.861 37.7135L128.861 69.0743L155.939 59.2182L155.939 27.8574L128.861 37.7135Z" fill="#00006b" fill-rule="nonzero" opacity="1" stroke="#cccccc" stroke-linecap="butt" stroke-linejoin="bevel" stroke-width="0.355"/>
<path d="M102.179 28.0015L128.861 37.7135L128.861 69.0743L102.179 59.3623L102.179 28.0015Z" fill="#00006b" fill-rule="nonzero" opacity="1" stroke="#cccccc" stroke-linecap="butt" stroke-linejoin="bevel" stroke-width="0.355"/>
<path d="M102.179 28.0015L128.861 37.7135L128.861 69.0743L102.179 59.3623L102.179 28.0015Z" fill="#00006b" fill-rule="nonzero" opacity="1" stroke="#cccccc" stroke-linecap="butt" stroke-linejoin="bevel" stroke-width="0.355"/>
<path d="M144.17 47.7857C144.171 50.8425 141.842 54.1683 138.969 55.2129C136.097 56.2585 133.768 54.628 133.768 51.5714C133.768 48.5146 136.097 45.1888 138.969 44.1441C141.841 43.0986 144.17 44.7291 144.17 47.7857Z" fill="#fff4e6" fill-rule="nonzero" opacity="1" stroke="none"/>
<path d="M144.17 47.7857C144.171 50.8425 141.842 54.1683 138.969 55.2129C136.097 56.2585 133.768 54.628 133.768 51.5714C133.768 48.5146 136.097 45.1888 138.969 44.1441C141.841 43.0986 144.17 44.7291 144.17 47.7857Z" fill="#fff4e6" fill-rule="nonzero" opacity="1" stroke="none"/>
</g>
</svg>
