<?xml version="1.0" encoding="UTF-8" standalone="no"?>
<!DOCTYPE svg PUBLIC "-//W3C//DTD SVG 1.1//EN" "http://www.w3.org/Graphics/SVG/1.1/DTD/svg11.dtd">
<!-- Created with Vectornator (http://vectornator.io/) -->
<svg height="100%" stroke-miterlimit="10" style="fill-rule:nonzero;clip-rule:evenodd;stroke-linecap:round;stroke-linejoin:round;" version="1.1" viewBox="0 0 1024 1024" width="100%" xml:space="preserve" xmlns="http://www.w3.org/2000/svg" xmlns:vectornator="http://vectornator.io" xmlns:xlink="http://www.w3.org/1999/xlink">
<defs>
<clipPath id="TextBounds">
<rect height="1194.36" width="1170.9" x="-73.4492" y="-85.5"/>
</clipPath>
<linearGradient gradientTransform="matrix(1 0 0 1 0 0)" gradientUnits="userSpaceOnUse" id="LinearGradient" x1="-73.4492" x2="1097.45" y1="511.68" y2="511.68">
<stop offset="0.117596" stop-color="#0013bf"/>
<stop offset="0.858617" stop-color="#c63c7e"/>
</linearGradient>
</defs>
<g id="Layer-1" vectornator:layerName="Layer 1">
<path clip-path="url(#TextBounds)" d="M513.5 1012.16C581.534 1012.16 645.58 999.135 705.639 973.094C765.697 947.052 818.676 911.082 864.574 865.184C910.473 819.285 946.443 766.307 972.484 706.248C998.526 646.189 1011.55 582.143 1011.55 514.109C1011.55 446.076 998.526 382.029 972.484 321.971C946.443 261.912 910.473 208.934 864.574 163.035C818.676 117.137 765.616 81.1667 705.395 55.125C645.173 29.0833 581.046 16.0625 513.012 16.0625C444.978 16.0625 380.932 29.0833 320.873 55.125C260.814 81.1667 207.917 117.137 162.182 163.035C116.446 208.934 80.5573 261.912 54.5156 321.971C28.474 382.029 15.4531 446.076 15.4531 514.109C15.4531 582.143 28.474 646.189 54.5156 706.248C80.5573 766.307 116.527 819.285 162.426 865.184C208.324 911.082 261.303 947.052 321.361 973.094C381.42 999.135 445.466 1012.16 513.5 1012.16ZM513.5 929.148C455.883 929.148 402.009 918.406 351.879 896.922C301.749 875.437 257.722 845.734 219.799 807.811C181.876 769.887 152.253 725.861 130.932 675.73C109.61 625.6 98.9492 571.727 98.9492 514.109C98.9492 456.492 109.61 402.618 130.932 352.488C152.253 302.358 181.794 258.25 219.555 220.164C257.315 182.078 301.26 152.374 351.391 131.053C401.521 109.731 455.395 99.0703 513.012 99.0703C570.629 99.0703 624.503 109.731 674.633 131.053C724.763 152.374 768.871 182.078 806.957 220.164C845.043 258.25 874.828 302.358 896.312 352.488C917.797 402.618 928.539 456.492 928.539 514.109C928.539 571.727 917.878 625.6 896.557 675.73C875.235 725.861 845.613 769.887 807.689 807.811C769.766 845.734 725.658 875.437 675.365 896.922C625.072 918.406 571.117 929.148 513.5 929.148ZM513.012 793.406C519.522 793.406 524.975 791.29 529.369 787.059C533.764 782.827 535.961 777.293 535.961 770.457L535.961 736.277C574.047 732.371 606.029 719.757 631.908 698.436C657.787 677.114 670.727 648.061 670.727 611.277C670.727 578.074 659.984 551.382 638.5 531.199C617.016 511.017 585.115 497.182 542.797 489.695L535.961 488.23L535.961 352C553.539 355.255 568.269 362.01 580.15 372.264C592.032 382.518 600.414 395.783 605.297 412.059C610.831 428.009 620.759 435.984 635.082 435.984C643.546 435.984 650.463 433.299 655.834 427.928C661.205 422.557 663.891 415.639 663.891 407.176C663.891 404.572 663.646 402.049 663.158 399.607C662.67 397.166 662.1 394.643 661.449 392.039C654.939 365.672 640.209 343.943 617.26 326.854C594.311 309.764 567.211 299.428 535.961 295.848L535.961 262.156C535.961 255.32 533.764 249.786 529.369 245.555C524.975 241.323 519.522 239.207 513.012 239.207C497.712 239.207 490.063 246.857 490.063 262.156L490.063 295.848C452.953 300.079 422.517 313.019 398.754 334.666C374.991 356.313 363.109 383.738 363.109 416.941C363.109 447.866 373.526 472.931 394.359 492.137C415.193 511.342 445.954 525.665 486.645 535.105L490.063 536.082L490.063 680.613C467.927 677.358 450.43 670.034 437.572 658.641C424.714 647.247 416.332 633.413 412.426 617.137C409.496 608.999 405.508 602.895 400.463 598.826C395.417 594.757 389.314 592.723 382.152 592.723C374.014 592.723 367.26 595.408 361.889 600.779C356.518 606.15 353.832 613.068 353.832 621.531C353.832 624.135 354.076 626.658 354.564 629.1C355.053 631.541 355.622 634.064 356.273 636.668C363.109 664.988 378.897 687.693 403.637 704.783C428.376 721.873 457.185 732.046 490.063 735.301L490.063 770.457C490.063 777.293 492.26 782.827 496.654 787.059C501.049 791.29 506.501 793.406 513.012 793.406ZM490.063 476.023L486.645 475.047C464.835 468.536 448.803 460.317 438.549 450.389C428.295 440.46 423.168 428.335 423.168 414.012C423.168 399.038 429.109 385.854 440.99 374.461C452.872 363.068 469.229 355.581 490.063 352L490.063 476.023ZM535.961 547.801L546.703 550.242C570.141 556.753 586.579 565.216 596.02 575.633C605.46 586.049 610.18 599.07 610.18 614.695C610.18 631.948 604.076 646.515 591.869 658.396C579.662 670.278 561.026 677.684 535.961 680.613L535.961 547.801Z" fill="url(#LinearGradient)" opacity="1" stroke="none"/>
</g>
</svg>
