<svg id="svg2" xmlns="http://www.w3.org/2000/svg" viewBox="0 0 64 84.61816"><defs><style>.cls-1,.cls-2{fill:#00006b;}.cls-2{font-size:77.84482px;font-family:MyriadPro-Regular, Myriad Pro;}</style></defs><path class="cls-1" d="M32,13.58c-10.564,0-13.22,9.97-13.22,18.42C18.778,40.452,21.44,50.42,32,50.42c10.565,0,13.22-9.97,13.22-18.42S42.565,13.58,32,13.58Zm0,6.95a4.96768,4.96768,0,0,1,1.19.15,2.02476,2.02476,0,0,1,.4,2.83L26.556,36.436A34.22947,34.22947,0,0,1,26.31,32c0-3.723.257-11.474,5.69-11.474Zm5.267,5.957A26.02928,26.02928,0,0,1,37.7,32c0,3.72-.26,11.475-5.7,11.475a4.94144,4.94144,0,0,1-1.185-.135,1.7043,1.7043,0,0,1-.205-.07c-.11-.03-.23-.07-.333-.11-1.21-.513-1.972-1.444-.877-3.09l7.867-13.58Z" transform="translate(0 11.18359)"/><path class="cls-1" d="M31.933,0A30.22327,30.22327,0,0,0,9.48,9.3,32.348,32.348,0,0,0,2.4,19.83a32.056,32.056,0,0,0,0,24.34,32.40188,32.40188,0,0,0,6.97,10.4A33.32439,33.32439,0,0,0,19.76,61.6,31.66586,31.66586,0,0,0,31.93,64a32.1573,32.1573,0,0,0,12.31-2.46,32.919,32.919,0,0,0,10.62-7.09,28.98445,28.98445,0,0,0,6.81-10.1A32.57665,32.57665,0,0,0,64,32a32.46878,32.46878,0,0,0-2.33-12.3A30.62267,30.62267,0,0,0,54.81,9.367,31.25931,31.25931,0,0,0,31.93,0Zm.134,5.76A25.27773,25.27773,0,0,1,50.62,13.47a25.58282,25.58282,0,0,1,5.671,8.47A26.29729,26.29729,0,0,1,58.24,32a24.56816,24.56816,0,0,1-7.51,18.33A27.4402,27.4402,0,0,1,42,56.11a25.45637,25.45637,0,0,1-9.933,1.996,27.60284,27.60284,0,0,1-9.949-1.946A27.28347,27.28347,0,0,1,7.776,41.93,25.50977,25.50977,0,0,1,5.76,32a25.24944,25.24944,0,0,1,2.02-9.95,27.902,27.902,0,0,1,5.82-8.63A25.09633,25.09633,0,0,1,32.067,5.76Z" transform="translate(0 11.18359)"/><text class="cls-2" transform="translate(7.71603 65.15685)">Δ</text></svg>