<svg xmlns="http://www.w3.org/2000/svg" viewBox="0 0 667.03 84.63">
  <defs>
    <style>
      .cls-1 {
        fill: #f0dfcf;
        stroke: #f26522;
        stroke-miterlimit: 10;
      }
    </style>
  </defs>
  <g id="Layer_2" data-name="Layer 2">
    <g id="Abstract_1" data-name="Abstract 1">
      <g>
        <path class="cls-1" d="M18.69,17.11H51.92l-6,28.14h18l6-28.14h33.22L86.27,96.66H53.05l6.44-30.51h-18L35.08,96.66H1.86Z" transform="translate(-1.24 -14.57)"/>
        <path class="cls-1" d="M133.16,84.68l-5.87,12h-34l43.17-79.55h43.85L192,96.66H159.15l-1-12Zm23.06-20.79c-.57-6.33-1.25-18.42-1.7-25.88h-.79c-2.6,7.24-7.35,18.42-10.62,25.88Z" transform="translate(-1.24 -14.57)"/>
        <path class="cls-1" d="M198.81,96.66l16.84-79.55h38C257.8,32.7,261.53,49,264,60.5h.68c.22-6.1,3.05-20.23,5.76-33.45l2.15-9.94h29.26L285,96.66H248.87c-2.93-12.31-8.24-36.5-11-49h-.56c-.79,9.26-3.84,23.84-6.78,37.63l-2.38,11.41Z" transform="translate(-1.24 -14.57)"/>
        <path class="cls-1" d="M317,17.11H358.6c27.57,0,40.79,17,40.79,34.92,0,29.83-22.37,44.63-52.09,44.63H300.17Zm20.68,59.55h8.7c12.66,0,17.74-12.77,17.74-25,0-9.72-2.6-14.58-11.86-14.58h-6.33Z" transform="translate(-1.24 -14.57)"/>
        <path class="cls-1" d="M434,72.25c.23,3.39,2.49,7.35,10,7.35,4.07,0,7.23-1.24,7.23-4.75,0-2.71-.68-5-12.32-7.79-22-5.43-27.91-13.23-27.91-24.19,0-17.85,16.5-27.8,38.87-27.8,26.11,0,39.44,9.61,40,25.43h-30c-.34-3.39-1.92-6.56-8-6.56-3.28,0-6,1.81-6,4.75s3.05,4.75,10.85,6.56c22.83,5.42,30.4,13.22,30.4,25.42,0,18.2-17.63,28-43.06,28-25.88,0-39.32-9.38-41.13-26.45Z" transform="translate(-1.24 -14.57)"/>
        <path class="cls-1" d="M568.21,67.17H530.46l-1.8,8.59h43.5L564,96.66H492l16.84-79.55h71.87L576.35,38H536.68L535,46.26h37.74Z" transform="translate(-1.24 -14.57)"/>
        <path class="cls-1" d="M607.19,38H584.25l4.41-20.9h79L663.24,38H640.41L628,96.66H594.76Z" transform="translate(-1.24 -14.57)"/>
      </g>
    </g>
  </g>
</svg>
