<?xml version="1.0" encoding="utf-8"?>
<!-- Generator: Adobe Illustrator 24.3.0, SVG Export Plug-In . SVG Version: 6.00 Build 0)  -->
<svg version="1.1" xmlns="http://www.w3.org/2000/svg" xmlns:xlink="http://www.w3.org/1999/xlink" x="0px" y="0px"
	 viewBox="0 0 2048 2048" style="enable-background:new 0 0 2048 2048;" xml:space="preserve">
<style type="text/css">
	.st0{fill:#FFFDEB;}
	.st1{fill:#F7FF85;}
	.st2{fill:#F9FBFF;}
	.st3{fill:#DA2573;}
	.st4{fill:#00006B;}
	.st5{fill:none;}
	.st6{font-family:'ACaslonPro-Bold';}
	.st7{font-size:211px;}
	.st8{letter-spacing:-10;}
</style>
<g id="Layer_1">
	<g id="surface867787">
		<path class="st0" d="M743.7,158.1H1664c53,0,96,43,96,96v1536c0,53-43,96-96,96H448c-53,0-96-43-96-96V549.8
			c0-25.5,10.2-49.9,28.2-67.8l295.7-295.7C693.8,168.2,718.2,158.1,743.7,158.1z"/>
		<path class="st1" d="M352,1888l-4.8-302.7L1738.9,193.9L1760,928l-960,960H352z M347.2,1252.8L1441.9,158.1l184,8L352,1440
			L347.2,1252.8z M347.2,1060.8L1248,160h96l-996.8,996.8V1060.8z"/>
		<path class="st2" d="M1456,416l39.7,72.3L1568,528l-72.3,39.7L1456,640l-39.7-72.3L1344,528l72.3-39.7L1456,416z M973.4,352
			l27.2,49.9l50.2,27.5l-50.2,27.2l-27.2,50.2l-27.5-50.2L896,429.4l49.9-27.5L973.4,352z M532.8,1344l18.6,33.9l34.2,18.9
			l-34.2,18.6l-18.6,34.2l-18.6-34.2l-34.2-18.6l34.2-18.9L532.8,1344z"/>
		<path class="st3" d="M736,160v384H352L736,160z"/>
		<path class="st4" d="M1696,128H757.1c-42.5-0.1-83.2,16.7-113.3,46.7L366.7,451.8c-30,30.1-46.8,70.8-46.7,113.3V1824
			c0,53,43,96,96,96h1280c53,0,96-43,96-96V224C1792,171,1749,128,1696,128z M689.3,220.2c4.5-4.5,9.4-8.6,14.7-12.2v272
			c0,17.7-14.3,32-32,32H400c3.6-5.3,7.6-10.2,12.2-14.7L689.3,220.2z M1728,1824c0,17.7-14.3,32-32,32H416c-17.7,0-32-14.3-32-32
			V576h288c53,0,96-43,96-96V192h928c17.7,0,32,14.3,32,32V1824z"/>
		<path class="st4" d="M1440,704h-128c-17.7,0-32,14.3-32,32s14.3,32,32,32h128c17.7,0,32-14.3,32-32S1457.7,704,1440,704z M672,768
			h512c17.7,0,32-14.3,32-32s-14.3-32-32-32H672c-17.7,0-32,14.3-32,32S654.3,768,672,768z M672,896h640c17.7,0,32-14.3,32-32
			s-14.3-32-32-32H672c-17.7,0-32,14.3-32,32S654.3,896,672,896z M1056,1152H672c-17.7,0-32,14.3-32,32s14.3,32,32,32h384
			c17.7,0,32-14.3,32-32S1073.7,1152,1056,1152z M1376,1024H672c-17.7,0-32,14.3-32,32s14.3,32,32,32h704c17.7,0,32-14.3,32-32
			S1393.7,1024,1376,1024z M480,1600c-17.7,0-32,14.3-32,32v64c0,17.7,14.3,32,32,32s32-14.3,32-32v-64
			C512,1614.3,497.7,1600,480,1600z M640,1600c-17.7,0-32,14.3-32,32v64c0,17.7,14.3,32,32,32s32-14.3,32-32v-64
			C672,1614.3,657.7,1600,640,1600z M800,1600c-17.7,0-32,14.3-32,32v64c0,17.7,14.3,32,32,32s32-14.3,32-32v-64
			C832,1614.3,817.7,1600,800,1600z M960,1600c-17.7,0-32,14.3-32,32v64c0,17.7,14.3,32,32,32s32-14.3,32-32v-64
			C992,1614.3,977.7,1600,960,1600z M1120,1600c-17.7,0-32,14.3-32,32v64c0,17.7,14.3,32,32,32s32-14.3,32-32v-64
			C1152,1614.3,1137.7,1600,1120,1600z M1280,1600c-17.7,0-32,14.3-32,32v64c0,17.7,14.3,32,32,32s32-14.3,32-32v-64
			C1312,1614.3,1297.7,1600,1280,1600z M1440,1600c-17.7,0-32,14.3-32,32v64c0,17.7,14.3,32,32,32s32-14.3,32-32v-64
			C1472,1614.3,1457.7,1600,1440,1600z M1600,1600c-17.7,0-32,14.3-32,32v64c0,17.7,14.3,32,32,32s32-14.3,32-32v-64
			C1632,1614.3,1617.7,1600,1600,1600z"/>
	</g>
</g>
<g id="Layer_2">
</g>
<g id="Layer_3">
	<rect x="922.8" y="234.5" class="st5" width="734.9" height="383.7"/>
	<text transform="matrix(1 0 0 1 960.5869 389.9722)"><tspan x="0" y="0" class="st4 st6 st7 st8">DAVID </tspan><tspan x="142.8" y="155" class="st4 st6 st7 st8">BLUE</tspan></text>
</g>
</svg>
