<svg width="143" height="45" viewBox="0 0 143 45" fill="none" role="img" aria-label="Twitter Blue logo"><path d="M40.3838 23.1375C39.7912 22.4812 39.09 21.945 38.2969 21.51 38.8631 21.1162 39.3694 20.6569 39.8156 20.1262 41.0794 18.615 41.715 16.8375 41.715 14.8519 41.715 12.0581 40.5806 9.75187 38.3662 8.05687 36.15 6.35625 32.9963 5.625 29.1413 5.625H5.1975C4.39688 5.625 3.75 6.27187 3.75 7.06875V37.9312C3.75 38.7319 4.39687 39.3787 5.19375 39.3787H29.3156C32.1919 39.3787 34.665 38.9569 36.66 38.0287 38.625 37.1287 40.1587 35.8781 41.1225 34.2319 42.0412 32.67 42.4969 30.9506 42.4969 29.1094 42.4969 26.7656 41.8294 24.7294 40.3838 23.1394V23.1375zM29.9963 16.7812C29.4844 17.5369 28.8337 18.2025 28.08 18.7388 28.0875 18.9019 28.0913 19.065 28.0913 19.2262 28.0913 24.2325 24.2231 30.0019 17.145 30.0019 14.9738 30.0019 12.9525 29.3775 11.25 28.3031 11.55 28.3406 11.8575 28.3556 12.1687 28.3556 13.9688 28.3556 15.63 27.7519 16.9462 26.7356 15.2625 26.7056 13.8412 25.6106 13.3519 24.1069 13.59 24.15 13.8319 24.1744 14.0794 24.1744 14.43 24.1744 14.7694 24.1294 15.0919 24.0431 13.3294 23.6962 12.0056 22.1644 12.0056 20.3306V20.2819C12.5269 20.5631 13.1194 20.7356 13.7494 20.7562 12.7181 20.0756 12.0375 18.9187 12.0375 17.6062 12.0375 16.9125 12.225 16.26 12.555 15.6994 14.4525 17.9925 17.2856 19.5 20.4862 19.6556 20.4206 19.38 20.385 19.0931 20.385 18.7969 20.385 16.7044 22.11 15.0094 24.2288 15.0094 25.335 15.0094 26.3363 15.4688 27.0375 16.2037 27.9131 16.035 28.7362 15.7163 29.4806 15.285 29.1956 16.1663 28.5863 16.9106 27.7931 17.3794 28.5694 17.2856 29.3119 17.0831 30 16.7794L29.9963 16.7812zM57.8674 39.3806H48.0762V4.92188H57.8674V39.3806zM77.2737 40.2844C73.2181 40.2844 70.0662 39.2719 67.8162 37.2431 65.598 35.2144 64.4881 32.3306 64.4881 28.5919V15.6188H74.2793V26.1675C74.2793 28.7363 74.898 30.6038 76.1355 31.7738 77.3693 32.9494 79.0793 33.5363 81.2674 33.5363 83.9599 33.5363 86.0205 32.805 87.4455 31.3481 88.8705 29.8575 89.583 27.9731 89.583 25.6912V15.6188H99.3762V39.3806H89.7762V33.9619C88.7262 36.0244 87.0949 37.5919 84.8787 38.6681 82.6605 39.7463 80.1255 40.2844 77.2737 40.2844zM139.732 29.5425H113.495C113.844 31.0312 114.807 32.1863 116.394 33.0113 117.978 33.8363 120.037 34.2488 122.572 34.2488 124.447 34.2488 126.153 33.9638 127.709 33.3919 129.292 32.7881 130.512 31.9669 131.366 30.9169L138.783 34.1513C137.103 36.1481 134.853 37.6688 132.033 38.7131 129.245 39.7594 125.949 40.2825 122.146 40.2825 118.407 40.2825 115.19 39.7913 112.497 38.8088 109.805 37.7925 107.729 36.3338 106.272 34.4344 104.847 32.5031 104.135 30.2194 104.135 27.5906 104.135 24.9281 104.862 22.6313 106.319 20.6981 107.776 18.7669 109.837 17.2931 112.497 16.2806 115.192 15.2344 118.329 14.7113 121.91 14.7113 125.649 14.7113 128.847 15.2663 131.51 16.3744 134.204 17.4525 136.248 19.005 137.641 21.0338 139.036 23.0588 139.734 25.4831 139.734 28.3031V29.5406L139.732 29.5425zM130.032 24.6938C129.972 23.2688 129.179 22.1119 127.659 21.225 126.17 20.3381 124.237 19.8938 121.859 19.8938 119.516 19.8938 117.599 20.3212 116.111 21.1763 114.622 22.0331 113.735 23.205 113.448 24.6938H130.036 130.032z" fill="#1D9BF0"></path></svg>